<svg width="48" height="20" viewBox="0 0 48 20" fill="none" xmlns="http://www.w3.org/2000/svg">
<path d="M0 10L6.75 5.23686L6.75 14.7631L0 10Z" fill="#F0F0F0"/>
<rect x="6" width="42" height="20" rx="4" fill="#F0F0F0"/>
<path d="M16.733 9H15.8523C15.8002 8.74669 15.709 8.52415 15.5788 8.33239C15.451 8.14062 15.2947 7.97964 15.1101 7.84943C14.9278 7.71686 14.7254 7.61742 14.5028 7.55114C14.2803 7.48485 14.0483 7.4517 13.8068 7.4517C13.3665 7.4517 12.9676 7.56297 12.6101 7.78551C12.255 8.00805 11.9721 8.33594 11.7614 8.76918C11.553 9.20241 11.4489 9.7339 11.4489 10.3636C11.4489 10.9934 11.553 11.5249 11.7614 11.9581C11.9721 12.3913 12.255 12.7192 12.6101 12.9418C12.9676 13.1643 13.3665 13.2756 13.8068 13.2756C14.0483 13.2756 14.2803 13.2424 14.5028 13.1761C14.7254 13.1098 14.9278 13.0116 15.1101 12.8814C15.2947 12.7488 15.451 12.5866 15.5788 12.3949C15.709 12.2008 15.8002 11.9782 15.8523 11.7273H16.733C16.6667 12.099 16.5459 12.4316 16.3707 12.7251C16.1955 13.0187 15.9777 13.2685 15.7173 13.4744C15.4569 13.678 15.1645 13.8331 14.8402 13.9396C14.5182 14.0462 14.1738 14.0994 13.8068 14.0994C13.1866 14.0994 12.6349 13.9479 12.152 13.6449C11.669 13.3419 11.2891 12.911 11.0121 12.3523C10.7351 11.7936 10.5966 11.1307 10.5966 10.3636C10.5966 9.59659 10.7351 8.93371 11.0121 8.375C11.2891 7.81629 11.669 7.38542 12.152 7.08239C12.6349 6.77936 13.1866 6.62784 13.8068 6.62784C14.1738 6.62784 14.5182 6.68111 14.8402 6.78764C15.1645 6.89418 15.4569 7.05043 15.7173 7.25639C15.9777 7.45999 16.1955 7.70857 16.3707 8.00213C16.5459 8.29332 16.6667 8.62595 16.733 9ZM20.2583 14.1136C19.7659 14.1136 19.3339 13.9964 18.9622 13.7621C18.5929 13.5277 18.304 13.1998 18.0957 12.7784C17.8897 12.357 17.7868 11.8646 17.7868 11.3011C17.7868 10.733 17.8897 10.237 18.0957 9.81321C18.304 9.38944 18.5929 9.06037 18.9622 8.82599C19.3339 8.59162 19.7659 8.47443 20.2583 8.47443C20.7508 8.47443 21.1816 8.59162 21.551 8.82599C21.9226 9.06037 22.2115 9.38944 22.4174 9.81321C22.6258 10.237 22.7299 10.733 22.7299 11.3011C22.7299 11.8646 22.6258 12.357 22.4174 12.7784C22.2115 13.1998 21.9226 13.5277 21.551 13.7621C21.1816 13.9964 20.7508 14.1136 20.2583 14.1136ZM20.2583 13.3608C20.6324 13.3608 20.9402 13.2649 21.1816 13.0732C21.4231 12.8814 21.6019 12.6293 21.7179 12.3168C21.8339 12.0043 21.8919 11.6657 21.8919 11.3011C21.8919 10.9366 21.8339 10.5968 21.7179 10.282C21.6019 9.96709 21.4231 9.71259 21.1816 9.51847C20.9402 9.32434 20.6324 9.22727 20.2583 9.22727C19.8843 9.22727 19.5765 9.32434 19.335 9.51847C19.0936 9.71259 18.9148 9.96709 18.7988 10.282C18.6828 10.5968 18.6248 10.9366 18.6248 11.3011C18.6248 11.6657 18.6828 12.0043 18.7988 12.3168C18.9148 12.6293 19.0936 12.8814 19.335 13.0732C19.5765 13.2649 19.8843 13.3608 20.2583 13.3608ZM24.0092 16.0455V8.54545H24.8189V9.41193H24.9183C24.9799 9.31723 25.0651 9.1965 25.174 9.04972C25.2853 8.90057 25.4439 8.76799 25.6499 8.65199C25.8582 8.53362 26.1399 8.47443 26.495 8.47443C26.9543 8.47443 27.3591 8.58925 27.7095 8.81889C28.0599 9.04853 28.3333 9.37405 28.5298 9.79545C28.7263 10.2169 28.8246 10.714 28.8246 11.2869C28.8246 11.8646 28.7263 12.3653 28.5298 12.7891C28.3333 13.2105 28.0611 13.5372 27.7131 13.7692C27.3651 13.9988 26.9638 14.1136 26.5092 14.1136C26.1589 14.1136 25.8783 14.0556 25.6676 13.9396C25.4569 13.8213 25.2947 13.6875 25.1811 13.5384C25.0675 13.3868 24.9799 13.2614 24.9183 13.1619H24.8473V16.0455H24.0092ZM24.8331 11.2727C24.8331 11.6847 24.8935 12.0481 25.0142 12.3629C25.1349 12.6754 25.3113 12.9205 25.5433 13.098C25.7753 13.2732 26.0594 13.3608 26.3956 13.3608C26.746 13.3608 27.0384 13.2685 27.2727 13.0838C27.5095 12.8968 27.687 12.6458 27.8054 12.331C27.9261 12.0137 27.9865 11.661 27.9865 11.2727C27.9865 10.8892 27.9273 10.5436 27.8089 10.2358C27.6929 9.92566 27.5166 9.68063 27.2798 9.50071C27.0455 9.31842 26.7507 9.22727 26.3956 9.22727C26.0547 9.22727 25.7682 9.31368 25.5362 9.48651C25.3042 9.65696 25.129 9.89607 25.0107 10.2038C24.8923 10.5092 24.8331 10.8655 24.8331 11.2727ZM30.103 14V8.54545H30.9411V14H30.103ZM30.5291 7.63636C30.3658 7.63636 30.2249 7.58073 30.1065 7.46946C29.9905 7.35819 29.9325 7.22443 29.9325 7.06818C29.9325 6.91193 29.9905 6.77817 30.1065 6.6669C30.2249 6.55563 30.3658 6.5 30.5291 6.5C30.6925 6.5 30.8321 6.55563 30.9482 6.6669C31.0665 6.77817 31.1257 6.91193 31.1257 7.06818C31.1257 7.22443 31.0665 7.35819 30.9482 7.46946C30.8321 7.58073 30.6925 7.63636 30.5291 7.63636ZM34.763 14.1136C34.2374 14.1136 33.784 13.9976 33.4029 13.7656C33.0241 13.5312 32.7317 13.2045 32.5257 12.7855C32.3221 12.3641 32.2203 11.8741 32.2203 11.3153C32.2203 10.7566 32.3221 10.2642 32.5257 9.83807C32.7317 9.40956 33.0182 9.07576 33.3851 8.83665C33.7544 8.59517 34.1853 8.47443 34.6777 8.47443C34.9618 8.47443 35.2424 8.52178 35.5194 8.61648C35.7963 8.71117 36.0485 8.86506 36.2757 9.07812C36.503 9.28883 36.6841 9.56818 36.8191 9.91619C36.954 10.2642 37.0215 10.6927 37.0215 11.2017V11.5568H32.8169V10.8324H36.1692C36.1692 10.5246 36.1077 10.25 35.9846 10.0085C35.8638 9.76705 35.691 9.57647 35.4661 9.43679C35.2435 9.29711 34.9808 9.22727 34.6777 9.22727C34.3439 9.22727 34.0551 9.31013 33.8113 9.47585C33.5698 9.6392 33.3839 9.85227 33.2537 10.1151C33.1235 10.3778 33.0584 10.6596 33.0584 10.9602V11.4432C33.0584 11.8551 33.1294 12.2043 33.2715 12.4908C33.4159 12.7749 33.6159 12.9915 33.8716 13.1406C34.1273 13.2874 34.4244 13.3608 34.763 13.3608C34.9831 13.3608 35.182 13.33 35.3596 13.2685C35.5395 13.2045 35.6945 13.1098 35.8248 12.9844C35.955 12.8565 36.0556 12.6979 36.1266 12.5085L36.9363 12.7358C36.851 13.0104 36.7078 13.2519 36.5066 13.4602C36.3053 13.6662 36.0568 13.8272 35.7608 13.9432C35.4649 14.0568 35.1323 14.1136 34.763 14.1136ZM40.356 14.1136C39.9015 14.1136 39.5002 13.9988 39.1522 13.7692C38.8042 13.5372 38.5319 13.2105 38.3354 12.7891C38.1389 12.3653 38.0407 11.8646 38.0407 11.2869C38.0407 10.714 38.1389 10.2169 38.3354 9.79545C38.5319 9.37405 38.8053 9.04853 39.1557 8.81889C39.5061 8.58925 39.9109 8.47443 40.3702 8.47443C40.7253 8.47443 41.0059 8.53362 41.2118 8.65199C41.4202 8.76799 41.5788 8.90057 41.6877 9.04972C41.7989 9.1965 41.8854 9.31723 41.9469 9.41193H42.0179V6.72727H42.856V14H42.0463V13.1619H41.9469C41.8854 13.2614 41.7978 13.3868 41.6841 13.5384C41.5705 13.6875 41.4083 13.8213 41.1976 13.9396C40.9869 14.0556 40.7064 14.1136 40.356 14.1136ZM40.4696 13.3608C40.8058 13.3608 41.0899 13.2732 41.3219 13.098C41.5539 12.9205 41.7303 12.6754 41.851 12.3629C41.9718 12.0481 42.0321 11.6847 42.0321 11.2727C42.0321 10.8655 41.973 10.5092 41.8546 10.2038C41.7362 9.89607 41.561 9.65696 41.329 9.48651C41.097 9.31368 40.8105 9.22727 40.4696 9.22727C40.1145 9.22727 39.8186 9.31842 39.5819 9.50071C39.3475 9.68063 39.1711 9.92566 39.0527 10.2358C38.9367 10.5436 38.8787 10.8892 38.8787 11.2727C38.8787 11.661 38.9379 12.0137 39.0563 12.331C39.177 12.6458 39.3546 12.8968 39.589 13.0838C39.8257 13.2685 40.1193 13.3608 40.4696 13.3608Z" fill="#707070"/>
</svg>
