<svg width="132" height="132" viewBox="0 0 132 132" fill="none" xmlns="http://www.w3.org/2000/svg">
<g clip-path="url(#clip0_1796_3028)">
<path d="M100.737 31.2629L69.4742 27.7893L31.2635 31.2629L27.7893 66L31.2629 100.737L66 105.079L100.737 100.737L104.211 65.1321L100.737 31.2629Z" fill="white"/>
<path d="M45.5144 85.1571C42.9179 83.4028 41.1201 80.8414 40.1387 77.4542L46.1658 74.9707C46.7129 77.0549 47.668 78.67 49.0315 79.8164C50.3865 80.9628 52.0365 81.5271 53.9643 81.5271C55.9358 81.5271 57.6293 80.9278 59.0444 79.7293C60.4594 78.5307 61.1722 77.0021 61.1722 75.1528C61.1722 73.2599 60.4251 71.7136 58.9315 70.5157C57.4379 69.3178 55.5622 68.7178 53.3215 68.7178H49.8393V62.7521H52.9651C54.893 62.7521 56.5172 62.2313 57.8372 61.1892C59.1572 60.1471 59.8172 58.7228 59.8172 56.9078C59.8172 55.2928 59.2265 54.0071 58.0458 53.0435C56.865 52.0799 55.3708 51.5935 53.5558 51.5935C51.7844 51.5935 50.3772 52.0627 49.3351 53.0092C48.293 53.9556 47.5373 55.1192 47.0601 56.4913L41.0944 54.0077C41.8844 51.767 43.3351 49.787 45.4622 48.0763C47.5901 46.3656 50.3079 45.5056 53.6079 45.5056C56.048 45.5056 58.2451 45.9749 60.1908 46.9213C62.1358 47.8678 63.6644 49.1792 64.7672 50.8463C65.8701 52.5221 66.4172 54.3985 66.4172 56.4821C66.4172 58.6099 65.9051 60.4071 64.8801 61.8835C63.8551 63.3599 62.5958 64.4885 61.1023 65.2792V65.635C63.0737 66.46 64.6801 67.7192 65.948 69.4128C67.2072 71.1064 67.8409 73.1299 67.8409 75.4921C67.8409 77.8542 67.2416 79.9642 66.043 81.8142C64.8445 83.6642 63.1859 85.1228 61.0844 86.1821C58.9744 87.2414 56.6037 87.7799 53.9723 87.7799C50.9244 87.7885 48.1108 86.9114 45.5144 85.1571Z" fill="#1A73E8"/>
<path d="M82.5001 55.2493L75.9172 60.0343L72.6086 55.015L84.4801 46.4521H89.0308V86.8422H82.5001V55.2493Z" fill="#1A73E8"/>
<path d="M100.737 132L132 100.737L116.369 93.79L100.737 100.737L93.79 116.369L100.737 132Z" fill="#EA4335"/>
<path d="M24.3157 116.368L31.2628 132H100.736V100.737H31.2628L24.3157 116.368Z" fill="#34A853"/>
<path d="M10.4207 0C4.66356 0 0 4.66356 0 10.4207V100.736L15.6314 107.684L31.2629 100.736V31.2629H100.736L107.684 15.6314L100.737 0H10.4207Z" fill="#4285F4"/>
<path d="M0 100.737V121.579C0 127.337 4.66356 132 10.4207 132H31.2629V100.737H0Z" fill="#188038"/>
<path d="M100.737 31.2628V100.736H132V31.2628L116.368 24.3157L100.737 31.2628Z" fill="#FBBC04"/>
<path d="M132 31.2629V10.4207C132 4.6629 127.336 0 121.579 0H100.737V31.2629H132Z" fill="#1967D2"/>
</g>
<defs>
<clipPath id="clip0_1796_3028">
<rect width="132" height="132" fill="white"/>
</clipPath>
</defs>
</svg>
