<svg width="20" height="21" viewBox="0 0 20 21" fill="none" xmlns="http://www.w3.org/2000/svg">
<g clip-path="url(#clip0_1914_1400)">
<mask id="path-1-outside-1_1914_1400" maskUnits="userSpaceOnUse" x="0.179932" y="3.53357" width="19" height="15" fill="black">
<rect fill="white" x="0.179932" y="3.53357" width="19" height="15"/>
<path d="M4.99574 4.48537C4.65104 4.58877 4.38554 4.90677 4.313 5.30137C4.27502 5.49677 4.28204 5.56197 4.4129 6.18637C4.6784 7.49277 4.79558 8.32397 4.79558 8.93697C4.79558 9.22037 4.78532 9.30477 4.74392 9.32017C4.65428 9.35857 4.43702 9.25117 4.15784 9.02897C3.55448 8.54637 3.1304 8.43137 2.61668 8.60757C1.97192 8.82577 1.42382 9.58437 1.22726 10.523C1.09964 11.136 1.23068 11.7988 1.61336 12.4538C2.14094 13.3618 2.9684 13.672 3.72692 13.243C3.81314 13.197 3.99584 13.0668 4.13372 12.9518C4.40264 12.7372 4.65788 12.607 4.74392 12.6414C4.78532 12.6606 4.79558 12.741 4.79558 13.0474C4.79558 13.6488 4.6784 14.4726 4.4129 15.7788C4.28186 16.3994 4.27502 16.4684 4.313 16.6638C4.38878 17.0852 4.67156 17.4032 5.04056 17.4914C5.1509 17.5182 5.83706 17.5336 6.89546 17.5336C8.76422 17.5336 8.82632 17.526 9.0263 17.296C9.18146 17.1122 9.24356 16.9512 9.24356 16.729C9.24356 16.4686 9.18488 16.3344 8.95736 16.051C8.62634 15.6372 8.48846 15.281 8.5367 14.9554C8.56424 14.7792 8.7194 14.5684 8.9021 14.465C9.37784 14.1968 10.6089 14.1892 11.0812 14.4536C11.6053 14.7486 11.5983 15.3692 11.0639 16.0244C10.8225 16.3232 10.7604 16.465 10.7604 16.7292C10.7604 16.9438 10.8225 17.1124 10.9638 17.277C11.1672 17.5222 11.0914 17.5146 13.0153 17.526C14.191 17.5336 14.8288 17.5222 14.9496 17.4954C15.322 17.4112 15.615 17.0816 15.6908 16.664C15.7288 16.4686 15.7218 16.4036 15.5907 15.779C15.3252 14.4726 15.208 13.649 15.208 13.0476C15.208 12.7412 15.2185 12.6606 15.2597 12.6416C15.3459 12.6072 15.601 12.7374 15.8699 12.952C16.0078 13.067 16.1905 13.1972 16.2767 13.2432C17.0352 13.6722 17.8627 13.362 18.3903 12.454C18.9592 11.4772 18.9627 10.4926 18.4005 9.52717C17.9523 8.75717 17.3214 8.41617 16.6489 8.57337C16.411 8.63077 16.1869 8.75717 15.8456 9.02917C15.5664 9.25137 15.3492 9.35857 15.2595 9.32037C15.2181 9.30497 15.2079 9.21697 15.2079 8.91817C15.2079 8.31677 15.325 7.49297 15.5905 6.18657C15.7216 5.56217 15.7284 5.49697 15.6906 5.30157C15.6148 4.89557 15.3528 4.58517 14.9942 4.48177C14.7184 4.40517 11.4981 4.40897 11.2567 4.48937C10.9636 4.58517 10.7602 4.89157 10.7602 5.23637C10.7602 5.49677 10.8189 5.63097 11.0671 5.94137C11.5051 6.48917 11.5947 7.02557 11.3051 7.33197C11.0464 7.60017 10.6983 7.69977 10.0019 7.69977C9.47432 7.69977 9.15374 7.64237 8.90552 7.50057C8.39864 7.20937 8.40908 6.60037 8.93648 5.94137C9.1847 5.63097 9.24338 5.49697 9.24338 5.23637C9.24338 4.89157 9.03998 4.58517 8.74694 4.48937C8.516 4.41257 5.2508 4.40877 4.99574 4.48537ZM8.44706 5.30137C8.41952 5.33977 8.34356 5.44317 8.27462 5.53497C8.1092 5.74957 7.91264 6.16317 7.84712 6.44677C7.6988 7.07897 7.87466 7.67657 8.32286 8.05197C8.66756 8.34317 9.10208 8.48097 9.79508 8.51557C11.3467 8.59977 12.2638 7.93717 12.1983 6.78777C12.1673 6.30117 11.9776 5.84537 11.6327 5.43537L11.4948 5.27457H13.167C14.6772 5.27457 14.8461 5.28217 14.9047 5.33977C14.9841 5.42017 14.9841 5.51597 14.9013 5.87997C14.8633 6.04477 14.7876 6.42397 14.7289 6.73037C14.2429 9.35457 14.4324 10.3162 15.3979 10.1438C15.7014 10.0864 15.9738 9.94457 16.3392 9.64957C16.8563 9.23197 17.2046 9.24737 17.5907 9.70697C18.2389 10.477 18.2389 11.4884 17.5907 12.2584C17.3805 12.5112 17.2046 12.607 16.9666 12.6032C16.7287 12.6032 16.6012 12.542 16.2943 12.2852C15.9772 12.0208 15.6944 11.8752 15.3909 11.8254C15.0669 11.768 14.8911 11.8178 14.7186 12.0208C14.5289 12.243 14.4704 12.4958 14.4772 13.1088C14.4807 13.7946 14.5944 14.6106 14.8668 15.9284C14.9805 16.4686 14.9805 16.6218 14.8736 16.6716C14.839 16.687 14.0668 16.71 13.16 16.7214L11.5051 16.7406L11.6257 16.5798C11.9187 16.1776 12.0739 15.8634 12.1567 15.5148C12.3532 14.6836 11.967 13.9174 11.205 13.63C10.5257 13.3734 9.43274 13.3772 8.78114 13.6414C7.68512 14.082 7.47128 15.3232 8.29874 16.438L8.48486 16.6908H6.81608C5.34386 16.6908 5.14046 16.6832 5.09222 16.6296C5.01986 16.553 5.02328 16.4418 5.10248 16.0856C5.46104 14.5188 5.6162 12.9442 5.47148 12.3888C5.3543 11.933 5.0681 11.7452 4.61306 11.8256C4.30274 11.8754 4.03382 12.0172 3.66482 12.316C3.14768 12.7334 2.79938 12.718 2.41328 12.2584C1.7651 11.4884 1.7651 10.477 2.41328 9.70697C2.79938 9.24717 3.15794 9.23577 3.69596 9.67257C4.05452 9.96377 4.29248 10.0864 4.60622 10.1438C5.05784 10.2242 5.35088 10.0326 5.47166 9.57677C5.61638 9.02517 5.48894 7.69957 5.13722 6.04857C5.02004 5.49697 5.01662 5.42417 5.09924 5.33977C5.1716 5.26697 5.38544 5.25937 7.292 5.24397C8.4332 5.23617 8.49188 5.23997 8.44706 5.30137Z"/>
</mask>
<path d="M4.99574 4.48537C4.65104 4.58877 4.38554 4.90677 4.313 5.30137C4.27502 5.49677 4.28204 5.56197 4.4129 6.18637C4.6784 7.49277 4.79558 8.32397 4.79558 8.93697C4.79558 9.22037 4.78532 9.30477 4.74392 9.32017C4.65428 9.35857 4.43702 9.25117 4.15784 9.02897C3.55448 8.54637 3.1304 8.43137 2.61668 8.60757C1.97192 8.82577 1.42382 9.58437 1.22726 10.523C1.09964 11.136 1.23068 11.7988 1.61336 12.4538C2.14094 13.3618 2.9684 13.672 3.72692 13.243C3.81314 13.197 3.99584 13.0668 4.13372 12.9518C4.40264 12.7372 4.65788 12.607 4.74392 12.6414C4.78532 12.6606 4.79558 12.741 4.79558 13.0474C4.79558 13.6488 4.6784 14.4726 4.4129 15.7788C4.28186 16.3994 4.27502 16.4684 4.313 16.6638C4.38878 17.0852 4.67156 17.4032 5.04056 17.4914C5.1509 17.5182 5.83706 17.5336 6.89546 17.5336C8.76422 17.5336 8.82632 17.526 9.0263 17.296C9.18146 17.1122 9.24356 16.9512 9.24356 16.729C9.24356 16.4686 9.18488 16.3344 8.95736 16.051C8.62634 15.6372 8.48846 15.281 8.5367 14.9554C8.56424 14.7792 8.7194 14.5684 8.9021 14.465C9.37784 14.1968 10.6089 14.1892 11.0812 14.4536C11.6053 14.7486 11.5983 15.3692 11.0639 16.0244C10.8225 16.3232 10.7604 16.465 10.7604 16.7292C10.7604 16.9438 10.8225 17.1124 10.9638 17.277C11.1672 17.5222 11.0914 17.5146 13.0153 17.526C14.191 17.5336 14.8288 17.5222 14.9496 17.4954C15.322 17.4112 15.615 17.0816 15.6908 16.664C15.7288 16.4686 15.7218 16.4036 15.5907 15.779C15.3252 14.4726 15.208 13.649 15.208 13.0476C15.208 12.7412 15.2185 12.6606 15.2597 12.6416C15.3459 12.6072 15.601 12.7374 15.8699 12.952C16.0078 13.067 16.1905 13.1972 16.2767 13.2432C17.0352 13.6722 17.8627 13.362 18.3903 12.454C18.9592 11.4772 18.9627 10.4926 18.4005 9.52717C17.9523 8.75717 17.3214 8.41617 16.6489 8.57337C16.411 8.63077 16.1869 8.75717 15.8456 9.02917C15.5664 9.25137 15.3492 9.35857 15.2595 9.32037C15.2181 9.30497 15.2079 9.21697 15.2079 8.91817C15.2079 8.31677 15.325 7.49297 15.5905 6.18657C15.7216 5.56217 15.7284 5.49697 15.6906 5.30157C15.6148 4.89557 15.3528 4.58517 14.9942 4.48177C14.7184 4.40517 11.4981 4.40897 11.2567 4.48937C10.9636 4.58517 10.7602 4.89157 10.7602 5.23637C10.7602 5.49677 10.8189 5.63097 11.0671 5.94137C11.5051 6.48917 11.5947 7.02557 11.3051 7.33197C11.0464 7.60017 10.6983 7.69977 10.0019 7.69977C9.47432 7.69977 9.15374 7.64237 8.90552 7.50057C8.39864 7.20937 8.40908 6.60037 8.93648 5.94137C9.1847 5.63097 9.24338 5.49697 9.24338 5.23637C9.24338 4.89157 9.03998 4.58517 8.74694 4.48937C8.516 4.41257 5.2508 4.40877 4.99574 4.48537ZM8.44706 5.30137C8.41952 5.33977 8.34356 5.44317 8.27462 5.53497C8.1092 5.74957 7.91264 6.16317 7.84712 6.44677C7.6988 7.07897 7.87466 7.67657 8.32286 8.05197C8.66756 8.34317 9.10208 8.48097 9.79508 8.51557C11.3467 8.59977 12.2638 7.93717 12.1983 6.78777C12.1673 6.30117 11.9776 5.84537 11.6327 5.43537L11.4948 5.27457H13.167C14.6772 5.27457 14.8461 5.28217 14.9047 5.33977C14.9841 5.42017 14.9841 5.51597 14.9013 5.87997C14.8633 6.04477 14.7876 6.42397 14.7289 6.73037C14.2429 9.35457 14.4324 10.3162 15.3979 10.1438C15.7014 10.0864 15.9738 9.94457 16.3392 9.64957C16.8563 9.23197 17.2046 9.24737 17.5907 9.70697C18.2389 10.477 18.2389 11.4884 17.5907 12.2584C17.3805 12.5112 17.2046 12.607 16.9666 12.6032C16.7287 12.6032 16.6012 12.542 16.2943 12.2852C15.9772 12.0208 15.6944 11.8752 15.3909 11.8254C15.0669 11.768 14.8911 11.8178 14.7186 12.0208C14.5289 12.243 14.4704 12.4958 14.4772 13.1088C14.4807 13.7946 14.5944 14.6106 14.8668 15.9284C14.9805 16.4686 14.9805 16.6218 14.8736 16.6716C14.839 16.687 14.0668 16.71 13.16 16.7214L11.5051 16.7406L11.6257 16.5798C11.9187 16.1776 12.0739 15.8634 12.1567 15.5148C12.3532 14.6836 11.967 13.9174 11.205 13.63C10.5257 13.3734 9.43274 13.3772 8.78114 13.6414C7.68512 14.082 7.47128 15.3232 8.29874 16.438L8.48486 16.6908H6.81608C5.34386 16.6908 5.14046 16.6832 5.09222 16.6296C5.01986 16.553 5.02328 16.4418 5.10248 16.0856C5.46104 14.5188 5.6162 12.9442 5.47148 12.3888C5.3543 11.933 5.0681 11.7452 4.61306 11.8256C4.30274 11.8754 4.03382 12.0172 3.66482 12.316C3.14768 12.7334 2.79938 12.718 2.41328 12.2584C1.7651 11.4884 1.7651 10.477 2.41328 9.70697C2.79938 9.24717 3.15794 9.23577 3.69596 9.67257C4.05452 9.96377 4.29248 10.0864 4.60622 10.1438C5.05784 10.2242 5.35088 10.0326 5.47166 9.57677C5.61638 9.02517 5.48894 7.69957 5.13722 6.04857C5.02004 5.49697 5.01662 5.42417 5.09924 5.33977C5.1716 5.26697 5.38544 5.25937 7.292 5.24397C8.4332 5.23617 8.49188 5.23997 8.44706 5.30137Z" fill="#127FE4"/>
<path d="M4.99574 4.48537L5.08203 4.77269L5.08194 4.77272L4.99574 4.48537ZM4.313 5.30137L4.60807 5.35561L4.60749 5.35861L4.313 5.30137ZM4.4129 6.18637L4.70653 6.12483L4.70689 6.12662L4.4129 6.18637ZM4.74392 9.32017L4.62579 9.0444L4.63249 9.04153L4.63933 9.03899L4.74392 9.32017ZM4.15784 9.02897L3.97102 9.2637L3.97045 9.26325L4.15784 9.02897ZM2.61668 8.60757L2.71401 8.89134L2.71285 8.89174L2.61668 8.60757ZM1.22726 10.523L0.93356 10.4618L0.933632 10.4615L1.22726 10.523ZM1.61336 12.4538L1.87239 12.3024L1.87276 12.3031L1.61336 12.4538ZM3.72692 13.243L3.57919 12.9818L3.58571 12.9783L3.72692 13.243ZM4.13372 12.9518L3.94152 12.7213L3.9466 12.7173L4.13372 12.9518ZM4.74392 12.6414L4.85529 12.3628L4.8628 12.3658L4.87014 12.3692L4.74392 12.6414ZM4.4129 15.7788L4.7069 15.8385L4.70643 15.8407L4.4129 15.7788ZM4.313 16.6638L4.60752 16.6065L4.60827 16.6107L4.313 16.6638ZM5.04056 17.4914L5.11031 17.1996L5.11137 17.1998L5.04056 17.4914ZM9.0263 17.296L9.25557 17.4895L9.25269 17.4928L9.0263 17.296ZM8.95736 16.051L8.72342 16.2388L8.7231 16.2384L8.95736 16.051ZM8.5367 14.9554L8.23993 14.9114L8.2403 14.909L8.5367 14.9554ZM8.9021 14.465L8.75434 14.2039L8.75478 14.2036L8.9021 14.465ZM11.0812 14.4536L11.2277 14.1918L11.2283 14.1921L11.0812 14.4536ZM11.0639 16.0244L10.8305 15.8358L10.8314 15.8347L11.0639 16.0244ZM10.9638 17.277L11.1915 17.0815L11.1947 17.0854L10.9638 17.277ZM13.0153 17.526L13.0171 17.226L13.0172 17.226L13.0153 17.526ZM14.9496 17.4954L15.0157 17.788L15.0145 17.7882L14.9496 17.4954ZM15.6908 16.664L15.3956 16.6104L15.3963 16.6067L15.6908 16.664ZM15.5907 15.779L15.2971 15.8406L15.2967 15.8387L15.5907 15.779ZM15.2597 12.6416L15.1341 12.3691L15.1412 12.3658L15.1485 12.3629L15.2597 12.6416ZM15.8699 12.952L16.0571 12.7174L16.0621 12.7216L15.8699 12.952ZM16.2767 13.2432L16.418 12.9784L16.4244 12.982L16.2767 13.2432ZM18.3903 12.454L18.1309 12.3033L18.131 12.303L18.3903 12.454ZM18.4005 9.52717L18.1413 9.67813L18.1412 9.67809L18.4005 9.52717ZM16.6489 8.57337L16.5786 8.28172L16.5807 8.28124L16.6489 8.57337ZM15.8456 9.02917L16.0326 9.26377L16.0324 9.2639L15.8456 9.02917ZM15.2595 9.32037L15.3642 9.03888L15.3771 9.04438L15.2595 9.32037ZM15.5905 6.18657L15.2965 6.12682L15.2969 6.12495L15.5905 6.18657ZM15.6906 5.30157L15.3961 5.35855L15.3957 5.35661L15.6906 5.30157ZM14.9942 4.48177L15.0745 4.1927L15.0773 4.19351L14.9942 4.48177ZM11.2567 4.48937L11.3515 4.774L11.3499 4.77452L11.2567 4.48937ZM11.0671 5.94137L11.3014 5.754L11.3015 5.75404L11.0671 5.94137ZM11.3051 7.33197L11.5231 7.53806L11.521 7.54023L11.3051 7.33197ZM8.90552 7.50057L8.75671 7.76106L8.75608 7.7607L8.90552 7.50057ZM8.93648 5.94137L9.17078 6.12873L9.17071 6.12882L8.93648 5.94137ZM8.74694 4.48937L8.65372 4.77452L8.65227 4.77404L8.74694 4.48937ZM8.44706 5.30137L8.20327 5.12652L8.20475 5.12449L8.44706 5.30137ZM8.27462 5.53497L8.51453 5.71513L8.51223 5.71812L8.27462 5.53497ZM7.84712 6.44677L8.13942 6.5143L8.13919 6.51529L7.84712 6.44677ZM8.32286 8.05197L8.51549 7.82198L8.51646 7.8228L8.32286 8.05197ZM9.79508 8.51557L9.81004 8.21594L9.81134 8.21601L9.79508 8.51557ZM12.1983 6.78777L12.4977 6.76872L12.4978 6.77069L12.1983 6.78777ZM11.6327 5.43537L11.8605 5.24008L11.8623 5.24225L11.6327 5.43537ZM11.4948 5.27457L11.2671 5.46985L10.8424 4.97457H11.4948V5.27457ZM14.9047 5.33977L15.1149 5.12565L15.1182 5.12899L14.9047 5.33977ZM14.9013 5.87997L15.1939 5.94651L15.1937 5.94734L14.9013 5.87997ZM14.7289 6.73037L14.4339 6.67574L14.4342 6.67394L14.7289 6.73037ZM15.3979 10.1438L15.4537 10.4386L15.4507 10.4391L15.3979 10.1438ZM16.3392 9.64957L16.5276 9.88297L16.5276 9.88299L16.3392 9.64957ZM17.5907 9.70697L17.3612 9.90017L17.361 9.89994L17.5907 9.70697ZM17.5907 12.2584L17.36 12.0665L17.3612 12.0652L17.5907 12.2584ZM16.9666 12.6032V12.3031L16.9714 12.3032L16.9666 12.6032ZM16.2943 12.2852L16.4864 12.0547L16.4869 12.0551L16.2943 12.2852ZM15.3909 11.8254L15.3423 12.1214L15.3386 12.1208L15.3909 11.8254ZM14.7186 12.0208L14.9473 12.215L14.9468 12.2156L14.7186 12.0208ZM14.4772 13.1088L14.7772 13.1054L14.7772 13.1073L14.4772 13.1088ZM14.8668 15.9284L14.5732 15.9902L14.573 15.9891L14.8668 15.9284ZM14.8736 16.6716L15.0003 16.9436L14.9957 16.9456L14.8736 16.6716ZM13.16 16.7214L13.1638 17.0213L13.1635 17.0213L13.16 16.7214ZM11.5051 16.7406L11.5086 17.0405L10.8998 17.0476L11.2651 16.5606L11.5051 16.7406ZM11.6257 16.5798L11.8682 16.7564L11.8657 16.7598L11.6257 16.5798ZM12.1567 15.5148L12.4486 15.5838L12.4486 15.5841L12.1567 15.5148ZM11.205 13.63L11.0991 13.9107L11.099 13.9106L11.205 13.63ZM8.78114 13.6414L8.89387 13.9194L8.89304 13.9197L8.78114 13.6414ZM8.29874 16.438L8.53964 16.2592L8.54033 16.2601L8.29874 16.438ZM8.48486 16.6908L8.72645 16.5129L9.07827 16.9908H8.48486V16.6908ZM5.09222 16.6296L5.31037 16.4235L5.31521 16.4289L5.09222 16.6296ZM5.10248 16.0856L4.80963 16.0205L4.81004 16.0186L5.10248 16.0856ZM5.47148 12.3888L5.18117 12.4644L5.18093 12.4635L5.47148 12.3888ZM4.61306 11.8256L4.66527 12.121L4.6606 12.1218L4.61306 11.8256ZM3.66482 12.316L3.85361 12.5491L3.85324 12.5494L3.66482 12.316ZM2.41328 12.2584L2.64279 12.0652L2.64298 12.0654L2.41328 12.2584ZM2.41328 9.70697L2.64303 9.89989L2.64279 9.90017L2.41328 9.70697ZM3.69596 9.67257L3.88505 9.43966L3.88509 9.43969L3.69596 9.67257ZM4.60622 10.1438L4.55364 10.4391L4.55223 10.4389L4.60622 10.1438ZM5.47166 9.57677L5.76184 9.6529L5.76165 9.65361L5.47166 9.57677ZM5.13722 6.04857L4.84381 6.11108L4.84377 6.11091L5.13722 6.04857ZM5.09924 5.33977L4.88486 5.1299L4.88647 5.12828L5.09924 5.33977ZM7.292 5.24397L7.28958 4.94398L7.28995 4.94397L7.292 5.24397ZM5.08194 4.77272C4.86 4.83929 4.66322 5.05556 4.60806 5.35561L4.01795 5.24713C4.10787 4.75798 4.44209 4.33824 4.90955 4.19802L5.08194 4.77272ZM4.60749 5.35861C4.5926 5.43524 4.58868 5.46875 4.59776 5.54945C4.60917 5.65085 4.63994 5.80712 4.70652 6.12483L4.11928 6.2479C4.05501 5.94121 4.01684 5.75269 4.00152 5.61654C3.98387 5.45969 3.99543 5.3629 4.01851 5.24413L4.60749 5.35861ZM4.70689 6.12662C4.97273 7.43467 5.09558 8.29141 5.09558 8.93697H4.49558C4.49558 8.35652 4.38408 7.55087 4.11891 6.24611L4.70689 6.12662ZM5.09558 8.93697C5.09558 9.0757 5.09343 9.18725 5.08268 9.26845C5.07744 9.30803 5.0674 9.36473 5.04121 9.42073C5.01109 9.48515 4.95216 9.56279 4.84851 9.60134L4.63933 9.03899C4.60229 9.05277 4.56968 9.07444 4.54362 9.10107C4.51897 9.12626 4.50506 9.15084 4.49771 9.16656C4.48508 9.19356 4.48537 9.20856 4.48787 9.18969C4.48986 9.17465 4.49202 9.14825 4.4935 9.10419C4.49494 9.06108 4.49558 9.0065 4.49558 8.93697H5.09558ZM4.86205 9.59593C4.75676 9.64103 4.65396 9.6292 4.58988 9.61523C4.52 9.59999 4.45144 9.5722 4.38862 9.54103C4.26214 9.47827 4.11957 9.38193 3.97102 9.2637L4.34466 8.79424C4.47529 8.89821 4.58095 8.96666 4.6553 9.00356C4.6929 9.02221 4.71291 9.02796 4.7177 9.029C4.72829 9.03131 4.68626 9.0185 4.62579 9.0444L4.86205 9.59593ZM3.97045 9.26325C3.68322 9.0335 3.46372 8.91224 3.27465 8.86063C3.09525 8.81166 2.92265 8.81978 2.71401 8.89134L2.51935 8.3238C2.82444 8.21915 3.12073 8.19667 3.43264 8.28181C3.73488 8.3643 4.02911 8.54184 4.34523 8.79469L3.97045 9.26325ZM2.71285 8.89174C2.20787 9.06263 1.70576 9.70168 1.52089 10.5845L0.933632 10.4615C1.14188 9.46706 1.73598 8.5889 2.52051 8.3234L2.71285 8.89174ZM1.52096 10.5841C1.4114 11.1104 1.51924 11.698 1.87239 12.3024L1.35433 12.6051C0.942126 11.8996 0.787887 11.1615 0.93356 10.4618L1.52096 10.5841ZM1.87276 12.3031C2.11098 12.7131 2.40134 12.9614 2.68858 13.0687C2.96912 13.1736 3.2733 13.1549 3.57923 12.9818L3.87461 13.5041C3.42203 13.7601 2.93321 13.8007 2.47849 13.6308C2.03048 13.4633 1.64332 13.1025 1.35397 12.6045L1.87276 12.3031ZM3.58571 12.9783C3.64524 12.9465 3.80963 12.8314 3.94157 12.7214L4.32588 13.1822C4.18205 13.3021 3.98104 13.4474 3.86814 13.5077L3.58571 12.9783ZM3.9466 12.7173C4.0924 12.6009 4.24054 12.5024 4.37129 12.4358C4.43594 12.4029 4.50495 12.3734 4.57284 12.3553C4.62684 12.3409 4.73963 12.3166 4.85529 12.3628L4.63255 12.9199C4.67399 12.9365 4.70651 12.9362 4.71711 12.9357C4.72919 12.9352 4.73339 12.9334 4.72736 12.9351C4.71479 12.9384 4.68705 12.9484 4.64351 12.9705C4.5579 13.0141 4.44396 13.088 4.32085 13.1863L3.9466 12.7173ZM4.87014 12.3692C4.96013 12.4109 5.01368 12.4817 5.04288 12.5464C5.06794 12.6019 5.07769 12.658 5.08288 12.6988C5.09342 12.7816 5.09558 12.8974 5.09558 13.0474H4.49558C4.49558 12.972 4.49494 12.9131 4.49348 12.8668C4.49199 12.8196 4.48979 12.7911 4.48768 12.7746C4.48513 12.7545 4.48455 12.7678 4.49604 12.7933C4.50279 12.8082 4.51519 12.8308 4.53675 12.8543C4.55938 12.8791 4.58704 12.8993 4.6177 12.9135L4.87014 12.3692ZM5.09558 13.0474C5.09558 13.6816 4.97261 14.5312 4.70689 15.8385L4.11891 15.719C4.38419 14.4139 4.49558 13.616 4.49558 13.0474H5.09558ZM4.70643 15.8407C4.63981 16.1563 4.60908 16.3125 4.59771 16.4141C4.5886 16.4955 4.59262 16.53 4.60749 16.6065L4.01851 16.721C3.9954 16.6021 3.98385 16.5045 4.00143 16.3474C4.01675 16.2104 4.05495 16.0219 4.11937 15.7168L4.70643 15.8407ZM4.60827 16.6107C4.66593 16.9313 4.87274 17.1428 5.11031 17.1996L4.97082 17.7831C4.47038 17.6635 4.11163 17.239 4.01774 16.7169L4.60827 16.6107ZM5.11137 17.1998C5.10658 17.1987 5.14005 17.2041 5.2443 17.2097C5.33618 17.2147 5.46184 17.219 5.61929 17.2226C5.93371 17.2297 6.36734 17.2336 6.89546 17.2336V17.8336C6.36519 17.8336 5.92653 17.8297 5.60569 17.8224C5.4455 17.8188 5.31279 17.8143 5.2119 17.8088C5.1234 17.804 5.02972 17.7975 4.96976 17.7829L5.11137 17.1998ZM6.89546 17.2336C7.84036 17.2336 8.30048 17.2312 8.55334 17.2029C8.6761 17.1892 8.71796 17.172 8.73265 17.1643C8.74253 17.1592 8.75295 17.1531 8.79991 17.0991L9.25269 17.4928C9.19966 17.5538 9.12733 17.635 9.01093 17.6959C8.89933 17.7543 8.77136 17.7822 8.62001 17.7992C8.32464 17.8322 7.81933 17.8336 6.89546 17.8336V17.2336ZM8.79706 17.1025C8.91098 16.9675 8.94356 16.8737 8.94356 16.729H9.54356C9.54356 17.0286 9.45195 17.2568 9.25554 17.4895L8.79706 17.1025ZM8.94356 16.729C8.94356 16.6243 8.93211 16.5687 8.90965 16.5158C8.88344 16.4541 8.8338 16.3763 8.72342 16.2388L9.1913 15.8632C9.30844 16.0091 9.4019 16.14 9.46192 16.2813C9.52568 16.4315 9.54356 16.5733 9.54356 16.729H8.94356ZM8.7231 16.2384C8.3715 15.7988 8.17367 15.3587 8.23994 14.9114L8.83346 14.9993C8.80326 15.2032 8.88119 15.4755 9.19163 15.8636L8.7231 16.2384ZM8.2403 14.909C8.26365 14.7597 8.33552 14.6183 8.42034 14.504C8.50649 14.388 8.62128 14.2792 8.75434 14.2039L9.04987 14.7261C9.00022 14.7542 8.94608 14.8024 8.90209 14.8617C8.85677 14.9227 8.8373 14.9749 8.8331 15.0017L8.2403 14.909ZM8.75478 14.2036C9.06159 14.0307 9.55237 13.962 9.99125 13.9595C10.4295 13.9571 10.921 14.0201 11.2277 14.1918L10.9346 14.7153C10.7691 14.6227 10.4089 14.5572 9.9946 14.5595C9.58095 14.5618 9.21835 14.6311 9.04943 14.7263L8.75478 14.2036ZM11.2283 14.1921C11.5824 14.3914 11.7738 14.7198 11.7695 15.1072C11.7654 15.4737 11.5879 15.8566 11.2964 16.214L10.8314 15.8347C11.0743 15.5369 11.1675 15.282 11.1695 15.1006C11.1713 14.9401 11.1041 14.8107 10.934 14.715L11.2283 14.1921ZM11.2973 16.2129C11.18 16.358 11.1258 16.442 11.0971 16.5087C11.0723 16.566 11.0604 16.6241 11.0604 16.7292H10.4604C10.4604 16.57 10.4796 16.4251 10.5462 16.2708C10.6088 16.1258 10.7064 15.9895 10.8305 15.8358L11.2973 16.2129ZM11.0604 16.7292C11.0604 16.872 11.0968 16.9713 11.1915 17.0816L10.7362 17.4724C10.5483 17.2535 10.4604 17.0156 10.4604 16.7292H11.0604ZM11.1947 17.0854C11.2269 17.1242 11.2384 17.1392 11.2535 17.1559C11.2642 17.1677 11.2666 17.1684 11.2646 17.1672C11.2591 17.1635 11.2746 17.1784 11.3808 17.1914C11.6052 17.2188 12.0409 17.2202 13.0171 17.226L13.0135 17.826C12.0658 17.8203 11.5775 17.8199 11.308 17.7869C11.1672 17.7697 11.0433 17.7398 10.9347 17.6683C10.8356 17.6031 10.767 17.5096 10.7329 17.4685L11.1947 17.0854ZM13.0172 17.226C13.6042 17.2298 14.055 17.2288 14.3731 17.2236C14.5324 17.221 14.6565 17.2174 14.7469 17.2129C14.7921 17.2106 14.827 17.2083 14.8527 17.2059C14.8813 17.2033 14.8889 17.2015 14.8846 17.2025L15.0145 17.7882C14.9553 17.8014 14.8671 17.8077 14.7766 17.8122C14.6767 17.8171 14.5452 17.8209 14.3829 17.8235C14.0581 17.8288 13.6021 17.8298 13.0133 17.826L13.0172 17.226ZM14.8834 17.2028C15.122 17.1488 15.3381 16.9272 15.3956 16.6104L15.986 16.7175C15.8919 17.236 15.522 17.6735 15.0157 17.788L14.8834 17.2028ZM15.3963 16.6067C15.4112 16.5301 15.4151 16.4967 15.406 16.416C15.3946 16.3147 15.3638 16.1584 15.2971 15.8406L15.8843 15.7174C15.9487 16.0241 15.9869 16.2127 16.0023 16.3488C16.0199 16.5057 16.0084 16.6024 15.9853 16.7212L15.3963 16.6067ZM15.2967 15.8387C15.031 14.5312 14.908 13.6818 14.908 13.0476H15.508C15.508 13.6162 15.6194 14.4139 15.8847 15.7192L15.2967 15.8387ZM14.908 13.0476C14.908 12.8975 14.9103 12.7817 14.9208 12.6988C14.926 12.6581 14.9358 12.602 14.9608 12.5465C14.9899 12.4821 15.0435 12.4109 15.1341 12.3691L15.3853 12.914C15.4163 12.8997 15.4442 12.8793 15.4669 12.8545C15.4886 12.8308 15.501 12.8082 15.5077 12.7933C15.5191 12.7679 15.5186 12.7547 15.516 12.7748C15.5139 12.7914 15.5117 12.8199 15.5102 12.8671C15.5087 12.9134 15.508 12.9722 15.508 13.0476H14.908ZM15.1485 12.3629C15.2641 12.3168 15.3767 12.3411 15.4308 12.3555C15.4988 12.3736 15.5678 12.4031 15.6324 12.4361C15.7632 12.5026 15.9112 12.6011 16.057 12.7175L15.6828 13.1865C15.5596 13.0882 15.4457 13.0143 15.3602 12.9707C15.3166 12.9486 15.2889 12.9386 15.2764 12.9353C15.2703 12.9337 15.2745 12.9354 15.2866 12.9359C15.2972 12.9364 15.3296 12.9367 15.3709 12.9202L15.1485 12.3629ZM16.0621 12.7216C16.194 12.8316 16.3584 12.9467 16.4179 12.9785L16.1355 13.5079C16.0226 13.4476 15.8216 13.3023 15.6777 13.1824L16.0621 12.7216ZM16.4244 12.982C16.7303 13.1551 17.0345 13.1738 17.315 13.0689C17.6023 12.9616 17.8926 12.7133 18.1309 12.3033L18.6497 12.6047C18.3603 13.1027 17.9731 13.4635 17.5251 13.631C17.0704 13.8009 16.5816 13.7603 16.129 13.5043L16.4244 12.982ZM18.131 12.303C18.6465 11.4181 18.6483 10.5488 18.1413 9.67813L18.6598 9.37621C19.277 10.4363 19.272 11.5362 18.6495 12.605L18.131 12.303ZM18.1412 9.67809C17.7353 8.98062 17.2201 8.74793 16.7172 8.86549L16.5807 8.28124C17.4227 8.0844 18.1694 8.53371 18.6598 9.37625L18.1412 9.67809ZM16.7193 8.865C16.5448 8.9071 16.3617 9.00144 16.0326 9.26377L15.6586 8.79456C16.012 8.51289 16.2772 8.35443 16.5786 8.28173L16.7193 8.865ZM16.0324 9.2639C15.8838 9.38216 15.7413 9.47846 15.6148 9.54118C15.552 9.57234 15.4834 9.60009 15.4136 9.61533C15.3496 9.6293 15.2471 9.64116 15.1419 9.59635L15.3771 9.04438C15.3168 9.01868 15.275 9.03146 15.2857 9.02913C15.2905 9.02807 15.3106 9.0223 15.3482 9.00365C15.4226 8.96678 15.5282 8.89837 15.6588 8.79444L16.0324 9.2639ZM15.1549 9.60154C15.0472 9.56148 14.9889 9.47958 14.9604 9.41609C14.9352 9.36021 14.9256 9.3034 14.9205 9.26314C14.91 9.18011 14.9079 9.06466 14.9079 8.91817H15.5079C15.5079 8.99162 15.5085 9.0495 15.51 9.09535C15.5114 9.14213 15.5136 9.17091 15.5158 9.18795C15.5185 9.20897 15.5192 9.19571 15.5076 9.17C15.5008 9.15495 15.4874 9.13008 15.4629 9.10424C15.4367 9.07673 15.4032 9.05372 15.3641 9.03919L15.1549 9.60154ZM14.9079 8.91817C14.9079 8.28396 15.0308 7.43431 15.2966 6.12682L15.8845 6.24632C15.6193 7.55162 15.5079 8.34957 15.5079 8.91817H14.9079ZM15.2969 6.12495C15.3636 5.8073 15.3944 5.65101 15.4058 5.54965C15.4149 5.46892 15.4109 5.43535 15.3961 5.35855L15.9852 5.24459C16.0081 5.36319 16.0197 5.45992 16.002 5.61674C15.9867 5.75292 15.9485 5.94144 15.8841 6.24819L15.2969 6.12495ZM15.3957 5.35661C15.3377 5.04605 15.1457 4.83769 14.9111 4.77002L15.0773 4.19351C15.5598 4.33264 15.8919 4.74509 15.9855 5.24652L15.3957 5.35661ZM14.9139 4.77082C14.9161 4.77144 14.8704 4.7639 14.7459 4.75624C14.636 4.74947 14.4905 4.74376 14.3198 4.73923C13.979 4.73016 13.5461 4.72598 13.113 4.72669C12.68 4.7274 12.2493 4.733 11.9129 4.74335C11.7445 4.74853 11.602 4.75484 11.4958 4.76211C11.4424 4.76577 11.4009 4.76948 11.3711 4.77306C11.3335 4.77757 11.3344 4.77967 11.3515 4.77399L11.1619 4.20474C11.2091 4.18901 11.2635 4.18166 11.2997 4.17732C11.3437 4.17205 11.3964 4.16751 11.4548 4.16352C11.5719 4.1555 11.7228 4.14891 11.8945 4.14363C12.2385 4.13305 12.6754 4.12741 13.1121 4.12669C13.5488 4.12598 13.9877 4.13018 14.3358 4.13944C14.5096 4.14406 14.6629 4.14999 14.7828 4.15737C14.8881 4.16385 15.0033 4.17294 15.0745 4.19271L14.9139 4.77082ZM11.3499 4.77452C11.1989 4.82388 11.0602 5.00051 11.0602 5.23637H10.4602C10.4602 4.78263 10.7284 4.34646 11.1635 4.20422L11.3499 4.77452ZM11.0602 5.23637C11.0602 5.34017 11.0715 5.39477 11.0956 5.4503C11.1245 5.51653 11.1797 5.60171 11.3014 5.754L10.8328 6.12873C10.7064 5.97063 10.6081 5.8335 10.5456 5.68993C10.4784 5.53567 10.4602 5.39297 10.4602 5.23637H11.0602ZM11.3015 5.75404C11.5415 6.05427 11.7028 6.37132 11.7547 6.67691C11.8076 6.98783 11.7471 7.30108 11.5231 7.53805L11.0871 7.12589C11.1527 7.05645 11.1922 6.9483 11.1632 6.77747C11.1333 6.60132 11.0307 6.37627 10.8328 6.1287L11.3015 5.75404ZM11.521 7.54023C11.1736 7.90051 10.7171 7.99977 10.0019 7.99977V7.39977C10.6796 7.39977 10.9193 7.29983 11.0892 7.12371L11.521 7.54023ZM10.0019 7.99977C9.46038 7.99977 9.07473 7.94273 8.75671 7.76106L9.05433 7.24008C9.23275 7.342 9.48826 7.39977 10.0019 7.39977V7.99977ZM8.75608 7.7607C8.40978 7.56175 8.22589 7.23598 8.2332 6.85317C8.24011 6.49156 8.41563 6.11207 8.70226 5.75392L9.17071 6.12882C8.92994 6.42967 8.83654 6.68418 8.83309 6.86462C8.83005 7.02386 8.89438 7.14818 9.05496 7.24044L8.75608 7.7607ZM8.70218 5.754C8.82401 5.60167 8.87915 5.51655 8.90799 5.45035C8.93216 5.39487 8.94338 5.34029 8.94338 5.23637H9.54338C9.54338 5.39304 9.52526 5.53576 9.45804 5.69003C9.39549 5.83359 9.29718 5.97067 9.17078 6.12873L8.70218 5.754ZM8.94338 5.23637C8.94338 5.00051 8.80471 4.82388 8.65372 4.77452L8.84016 4.20422C9.27526 4.34646 9.54338 4.78263 9.54338 5.23637H8.94338ZM8.65227 4.77404C8.67096 4.78025 8.6735 4.77827 8.63519 4.77385C8.60548 4.77042 8.56393 4.76686 8.51037 4.76337C8.40371 4.7564 8.26031 4.75038 8.09054 4.74544C7.75164 4.73559 7.31683 4.73033 6.88005 4.72984C6.44329 4.72936 6.00695 4.73365 5.66499 4.74277C5.49373 4.74734 5.34833 4.75306 5.23925 4.75982C5.18452 4.76321 5.14145 4.76672 5.11004 4.77016C5.0718 4.77435 5.06885 4.77665 5.08203 4.77269L4.90945 4.19804C4.95452 4.18451 5.00696 4.17786 5.04469 4.17373C5.08925 4.16885 5.1427 4.16465 5.20212 4.16097C5.32133 4.15358 5.47467 4.14763 5.649 4.14298C5.99822 4.13367 6.44044 4.12935 6.88072 4.12984C7.32099 4.13033 7.76173 4.13563 8.10797 4.1457C8.28078 4.15072 8.43236 4.157 8.54946 4.16464C8.60778 4.16845 8.66031 4.17277 8.70393 4.1778C8.73894 4.18184 8.79405 4.18888 8.84161 4.2047L8.65227 4.77404ZM8.69085 5.47621C8.6616 5.51699 8.58423 5.62227 8.51451 5.71512L8.03474 5.35482C8.10289 5.26406 8.17745 5.16254 8.20328 5.12653L8.69085 5.47621ZM8.51223 5.71812C8.37359 5.89797 8.1954 6.27199 8.13942 6.5143L7.55482 6.37924C7.62988 6.05434 7.84481 5.60116 8.03702 5.35182L8.51223 5.71812ZM8.13919 6.51529C8.01301 7.05315 8.16603 7.52928 8.51549 7.82198L8.13023 8.28195C7.58329 7.82385 7.3846 7.10479 7.55505 6.37824L8.13919 6.51529ZM8.51646 7.8228C8.79069 8.05446 9.15008 8.18299 9.81004 8.21594L9.78012 8.8152C9.05409 8.77894 8.54444 8.63188 8.12926 8.28114L8.51646 7.8228ZM9.81134 8.21601C10.548 8.25599 11.0882 8.11528 11.4278 7.8708C11.7528 7.6368 11.9262 7.28582 11.8987 6.80484L12.4978 6.77069C12.5359 7.43911 12.2834 7.99413 11.7784 8.35773C11.2879 8.71085 10.5937 8.85935 9.77883 8.81513L9.81134 8.21601ZM11.8989 6.80682C11.8724 6.39006 11.7107 5.9941 11.4031 5.62848L11.8623 5.24225C12.2445 5.69664 12.4623 6.21228 12.4977 6.76872L11.8989 6.80682ZM11.405 5.63065L11.2671 5.46985L11.7226 5.07929L11.8604 5.24009L11.405 5.63065ZM11.4948 4.97457H13.167V5.57457H11.4948V4.97457ZM13.167 4.97457C13.9196 4.97457 14.3462 4.97641 14.5916 4.98579C14.712 4.99038 14.8046 4.9972 14.8754 5.01028C14.9497 5.02402 15.0391 5.05125 15.1149 5.12567L14.6946 5.55386C14.7411 5.59948 14.7873 5.60416 14.7663 5.60028C14.7417 5.59574 14.6867 5.58985 14.5688 5.58535C14.3375 5.57652 13.9246 5.57457 13.167 5.57457V4.97457ZM15.1182 5.12899C15.1607 5.17198 15.202 5.22729 15.2298 5.30035C15.2565 5.37076 15.2642 5.44074 15.2638 5.50513C15.2632 5.62269 15.2342 5.76917 15.1938 5.94651L14.6088 5.81343C14.6291 5.72432 14.6431 5.65643 14.6522 5.60321C14.6613 5.54903 14.6638 5.51843 14.6639 5.5019C14.6639 5.48679 14.6619 5.495 14.6689 5.51346C14.6769 5.53456 14.6885 5.54776 14.6913 5.55054L15.1182 5.12899ZM15.1937 5.94734C15.1571 6.10591 15.0823 6.47986 15.0235 6.7868L14.4342 6.67394C14.4928 6.36808 14.5696 5.98362 14.609 5.8126L15.1937 5.94734ZM15.0239 6.785C14.7803 8.1003 14.7185 8.94414 14.8135 9.42802C14.8599 9.66464 14.9347 9.76599 14.995 9.81017C15.0509 9.85113 15.1499 9.88332 15.3452 9.84844L15.4507 10.4391C15.1633 10.4904 14.8764 10.4671 14.6405 10.2942C14.4089 10.1246 14.2856 9.85382 14.2247 9.54357C14.105 8.9337 14.1915 7.98463 14.4339 6.67574L15.0239 6.785ZM15.3422 9.84899C15.5789 9.80422 15.8063 9.6942 16.1507 9.41615L16.5276 9.88299C16.1412 10.1949 15.8239 10.3685 15.4537 10.4385L15.3422 9.84899ZM16.1507 9.41617C16.4263 9.19363 16.7157 9.03543 17.0277 9.04963C17.3504 9.06431 17.605 9.2576 17.8204 9.514L17.361 9.89994C17.1903 9.69674 17.0777 9.65252 17.0004 9.64901C16.9125 9.645 16.7692 9.6879 16.5276 9.88297L16.1507 9.41617ZM17.8202 9.51377C18.5624 10.3954 18.5624 11.5699 17.8202 12.4516L17.3612 12.0652C17.9154 11.4068 17.9154 10.5585 17.3612 9.90017L17.8202 9.51377ZM17.8214 12.4502C17.7035 12.5919 17.5791 12.7098 17.4338 12.7898C17.2828 12.8729 17.1267 12.9058 16.9619 12.9031L16.9714 12.3032C17.0445 12.3044 17.0954 12.2912 17.1443 12.2642C17.199 12.2341 17.2677 12.1776 17.36 12.0665L17.8214 12.4502ZM16.9666 12.9032C16.8161 12.9032 16.6782 12.8828 16.5278 12.8115C16.3905 12.7464 16.2569 12.645 16.1018 12.5152L16.4869 12.0551C16.6387 12.1821 16.7222 12.2397 16.7849 12.2694C16.8344 12.2929 16.8792 12.3032 16.9666 12.3032V12.9032ZM16.1022 12.5156C15.8114 12.2731 15.5767 12.1599 15.3423 12.1214L15.4395 11.5293C15.8121 11.5905 16.143 11.7684 16.4864 12.0547L16.1022 12.5156ZM15.3386 12.1208C15.1961 12.0955 15.1236 12.1014 15.0813 12.1136C15.047 12.1235 15.007 12.1447 14.9473 12.215L14.49 11.8265C14.6027 11.6939 14.7368 11.5886 14.9146 11.5372C15.0843 11.4882 15.2617 11.4978 15.4433 11.53L15.3386 12.1208ZM14.9468 12.2156C14.8335 12.3482 14.7705 12.5013 14.7772 13.1054L14.1773 13.1121C14.1703 12.4903 14.2243 12.1377 14.4905 11.826L14.9468 12.2156ZM14.7772 13.1073C14.7805 13.7621 14.8891 14.5541 15.1606 15.8677L14.573 15.9891C14.2997 14.667 14.1808 13.8271 14.1772 13.1103L14.7772 13.1073ZM15.1603 15.8665C15.2164 16.1326 15.2518 16.3348 15.2529 16.4816C15.2535 16.5563 15.2461 16.6462 15.2077 16.7323C15.1636 16.8316 15.0892 16.9021 15.0003 16.9435L14.7469 16.3996C14.7114 16.4162 14.6772 16.4488 14.6595 16.4885C14.6477 16.515 14.6532 16.5235 14.6529 16.4862C14.6524 16.4089 14.6309 16.2643 14.5732 15.9902L15.1603 15.8665ZM14.9957 16.9456C14.9617 16.9608 14.9314 16.9663 14.9265 16.9673C14.9151 16.9696 14.9048 16.9711 14.8975 16.972C14.8827 16.974 14.8666 16.9755 14.8515 16.9767C14.8206 16.9792 14.7804 16.9816 14.7335 16.9839C14.6392 16.9885 14.5088 16.9933 14.3527 16.9978C14.0399 17.007 13.6185 17.0156 13.1638 17.0213L13.1562 16.4214C13.6084 16.4157 14.0264 16.4071 14.3351 16.3981C14.4897 16.3936 14.6155 16.389 14.704 16.3846C14.7487 16.3824 14.7815 16.3804 14.803 16.3786C14.8082 16.3782 14.8122 16.3779 14.8153 16.3776C14.8184 16.3772 14.8198 16.3771 14.8197 16.3771C14.8196 16.3771 14.8188 16.3772 14.8174 16.3774C14.8161 16.3776 14.8135 16.378 14.8099 16.3787C14.8067 16.3794 14.8005 16.3807 14.7927 16.3828C14.7862 16.3846 14.7706 16.389 14.7515 16.3975L14.9957 16.9456ZM13.1635 17.0213L11.5086 17.0405L11.5016 16.4406L13.1565 16.4214L13.1635 17.0213ZM11.2651 16.5606L11.3857 16.3998L11.8657 16.7598L11.7451 16.9206L11.2651 16.5606ZM11.3832 16.4031C11.6606 16.0223 11.7938 15.7442 11.8648 15.4454L12.4486 15.5841C12.3539 15.9825 12.1768 16.3328 11.8682 16.7564L11.3832 16.4031ZM11.8647 15.4457C12.0293 14.75 11.7094 14.1408 11.0991 13.9107L11.3109 13.3493C12.2246 13.6939 12.6772 14.6171 12.4486 15.5838L11.8647 15.4457ZM11.099 13.9106C10.8034 13.799 10.3991 13.7386 9.98398 13.7404C9.5682 13.7422 9.17301 13.8062 8.89387 13.9194L8.66842 13.3634C9.04087 13.2123 9.51796 13.1424 9.98139 13.1404C10.4455 13.1384 10.9273 13.2044 11.311 13.3493L11.099 13.9106ZM8.89304 13.9197C8.43752 14.1028 8.1829 14.4398 8.11427 14.8378C8.04412 15.2447 8.16346 15.7524 8.53964 16.2592L8.05785 16.6168C7.60656 16.0088 7.41909 15.3385 7.523 14.7359C7.62843 14.1244 8.02874 13.6205 8.66924 13.363L8.89304 13.9197ZM8.54033 16.2601L8.72645 16.5129L8.24328 16.8686L8.05716 16.6158L8.54033 16.2601ZM8.48486 16.9908H6.81608V16.3908H8.48486V16.9908ZM6.81608 16.9908C6.08217 16.9908 5.65697 16.9889 5.40946 16.9801C5.28796 16.9757 5.19488 16.9694 5.12494 16.9576C5.06489 16.9474 4.95364 16.924 4.86923 16.8303L5.31521 16.4289C5.25493 16.3619 5.18719 16.3596 5.22485 16.3659C5.25263 16.3706 5.31145 16.3762 5.43086 16.3805C5.66516 16.3888 6.07778 16.3908 6.81608 16.3908V16.9908ZM4.87414 16.8356C4.76825 16.7235 4.73777 16.5907 4.74058 16.4562C4.743 16.3403 4.77067 16.1957 4.80963 16.0205L5.39533 16.1507C5.35509 16.3317 5.34145 16.4208 5.34045 16.4687C5.34003 16.4888 5.34254 16.4854 5.33772 16.4704C5.33157 16.4513 5.32046 16.4343 5.3103 16.4236L4.87414 16.8356ZM4.81004 16.0186C4.98678 15.2463 5.11302 14.4735 5.17718 13.8282C5.24296 13.1668 5.2384 12.684 5.18118 12.4644L5.76179 12.3131C5.84929 12.6489 5.83951 13.2312 5.77424 13.8876C5.70736 14.5602 5.57674 15.358 5.39492 16.1525L4.81004 16.0186ZM5.18093 12.4635C5.13391 12.2806 5.06487 12.1966 5.0044 12.1569C4.9449 12.1179 4.84434 12.0894 4.66526 12.121L4.56086 11.5301C4.83682 11.4814 5.10688 11.5066 5.33354 11.6553C5.55923 11.8033 5.69187 12.0412 5.76203 12.3141L5.18093 12.4635ZM4.6606 12.1218C4.42356 12.1598 4.20298 12.2662 3.85361 12.5491L3.47603 12.0828C3.86466 11.7681 4.18193 11.5909 4.56553 11.5294L4.6606 12.1218ZM3.85324 12.5494C3.57766 12.7718 3.28819 12.93 2.97624 12.9157C2.65359 12.901 2.39898 12.7077 2.18358 12.4513L2.64298 12.0654C2.81368 12.2686 2.92628 12.3128 3.00359 12.3164C3.09159 12.3204 3.23485 12.2775 3.4764 12.0825L3.85324 12.5494ZM2.18377 12.4516C1.44161 11.5699 1.44161 10.3954 2.18377 9.51377L2.64279 9.90017C2.0886 10.5585 2.0886 11.4068 2.64279 12.0652L2.18377 12.4516ZM2.18354 9.51405C2.40084 9.25526 2.65998 9.06285 2.98928 9.05366C3.30452 9.04486 3.6 9.20824 3.88505 9.43966L3.50687 9.90547C3.2539 9.7001 3.10109 9.65077 3.00602 9.65343C2.92502 9.65569 2.81182 9.69887 2.64303 9.89989L2.18354 9.51405ZM3.88509 9.43969C4.22051 9.7121 4.41294 9.80343 4.66021 9.84867L4.55223 10.4389C4.17202 10.3693 3.88853 10.2154 3.50684 9.90544L3.88509 9.43969ZM4.6588 9.84841C4.83396 9.87959 4.93612 9.85132 4.99866 9.81036C5.06249 9.76857 5.13347 9.68184 5.18167 9.49992L5.76165 9.65361C5.68908 9.9275 5.55314 10.1645 5.32735 10.3123C5.10027 10.461 4.83011 10.4883 4.55364 10.4391L4.6588 9.84841ZM5.18148 9.50064C5.23923 9.28052 5.24947 8.8578 5.19196 8.25336C5.1356 7.66114 5.01801 6.92878 4.84381 6.11108L5.43064 5.98606C5.60816 6.81935 5.73014 7.57529 5.78926 8.19652C5.84721 8.80554 5.84881 9.32141 5.76184 9.6529L5.18148 9.50064ZM4.84377 6.11091C4.78714 5.84432 4.75044 5.66148 4.74373 5.53483C4.74011 5.46647 4.74316 5.38887 4.77039 5.31031C4.79961 5.22599 4.84685 5.16874 4.88486 5.12991L5.31362 5.54963C5.31033 5.55299 5.32701 5.53649 5.3373 5.5068C5.34559 5.48287 5.34133 5.47376 5.34289 5.5031C5.34653 5.57186 5.37013 5.70121 5.43067 5.98623L4.84377 6.11091ZM4.88647 5.12828C4.96684 5.04741 5.0638 5.01727 5.14929 5.00133C5.23199 4.98591 5.34365 4.97712 5.49492 4.97062C5.80233 4.95741 6.33902 4.95166 7.28958 4.94398L7.29443 5.54396C6.33843 5.55168 5.81492 5.55742 5.52067 5.57007C5.37112 5.57649 5.29659 5.58421 5.25927 5.59117C5.22473 5.59761 5.26782 5.59572 5.31202 5.55125L4.88647 5.12828ZM7.28995 4.94397C7.85517 4.94011 8.16671 4.9389 8.3294 4.9471C8.37108 4.9492 8.41038 4.95223 8.44516 4.95726C8.47226 4.96118 8.52868 4.97022 8.58454 4.99932C8.61535 5.01536 8.66353 5.04639 8.70229 5.1029C8.74543 5.16578 8.76131 5.23747 8.75623 5.30382C8.74848 5.40525 8.6913 5.47561 8.68937 5.47825L8.20475 5.12449C8.20393 5.12561 8.19599 5.13632 8.18741 5.15296C8.17944 5.16841 8.16198 5.20572 8.15798 5.25809C8.15336 5.31847 8.16793 5.3846 8.20752 5.4423C8.24272 5.49363 8.28511 5.51987 8.3074 5.53148C8.34624 5.5517 8.37475 5.55332 8.35923 5.55107C8.35139 5.54994 8.33335 5.54806 8.29918 5.54634C8.15843 5.53924 7.87004 5.54002 7.29405 5.54396L7.28995 4.94397Z" fill="#127FE4" mask="url(#path-1-outside-1_1914_1400)"/>
</g>
<defs>
<clipPath id="clip0_1914_1400">
<rect width="18" height="20" fill="white" transform="translate(1 0.97998)"/>
</clipPath>
</defs>
</svg>
