<svg width="132" height="132" viewBox="0 0 132 132" fill="none" xmlns="http://www.w3.org/2000/svg">
<g clip-path="url(#clip0_1796_3017)">
<path d="M82.6064 27.9866V53.8065L91.7293 59.4881C91.9699 59.5575 92.4912 59.5625 92.7318 59.4881L131.995 33.3062C131.995 30.2076 129.073 27.9866 127.423 27.9866H82.6064Z" fill="#0072C6"/>
<path d="M82.6066 63.4393L90.9324 69.0961C92.1053 69.9488 93.5189 69.0961 93.5189 69.0961C92.1103 69.9488 132 43.7422 132 43.7422V91.1977C132 96.3637 128.657 98.5302 124.897 98.5302H82.6016V63.4393H82.6066Z" fill="#0072C6"/>
<path d="M39.4988 51.5359C36.6617 51.5359 34.401 52.8546 32.7319 55.4872C31.0627 58.1198 30.2256 61.6051 30.2256 65.9431C30.2256 70.3456 31.0627 73.8259 32.7319 76.3841C34.401 78.9473 36.5915 80.2214 39.2983 80.2214C42.0902 80.2214 44.3058 78.977 45.9399 76.4882C47.574 73.9994 48.396 70.5439 48.396 66.1265C48.396 61.5208 47.604 57.9363 46.0151 55.3732C44.4261 52.815 42.2557 51.5359 39.4988 51.5359Z" fill="#0072C6"/>
<path d="M0 14.8732V115.887L77.6942 132V0L0 14.8732ZM51.99 82.4572C48.7068 86.7308 44.4261 88.8726 39.1429 88.8726C33.995 88.8726 29.8045 86.8002 26.5614 82.6605C23.3233 78.5158 21.6992 73.1218 21.6992 66.4685C21.6992 59.4434 23.3434 53.7618 26.6366 49.4238C29.9298 45.0858 34.2907 42.9143 39.7193 42.9143C44.8471 42.9143 48.9975 44.9866 52.1604 49.1412C55.3283 53.2958 56.9123 58.7691 56.9123 65.5662C56.9173 72.5517 55.2732 78.1837 51.99 82.4572Z" fill="#0072C6"/>
</g>
<defs>
<clipPath id="clip0_1796_3017">
<rect width="132" height="132" fill="white"/>
</clipPath>
</defs>
</svg>
