<svg width="24" height="24" viewBox="0 0 24 24" fill="none" xmlns="http://www.w3.org/2000/svg">
<path fill-rule="evenodd" clip-rule="evenodd" d="M0.299805 4.49999C0.299805 3.00882 1.50864 1.79999 2.9998 1.79999H13.1998C14.6909 1.79999 15.8998 3.00882 15.8998 4.49999V4.79999C15.8998 5.29704 15.4968 5.69999 14.9998 5.69999C14.5028 5.69999 14.0998 5.29704 14.0998 4.79999V4.49999C14.0998 4.00294 13.6968 3.59999 13.1998 3.59999H2.9998C2.50275 3.59999 2.0998 4.00294 2.0998 4.49999V11.1C2.0998 11.597 2.50275 12 2.9998 12H3.5998C4.09686 12 4.4998 12.4029 4.4998 12.9C4.4998 13.397 4.09686 13.8 3.5998 13.8H2.9998C1.50864 13.8 0.299805 12.5911 0.299805 11.1V4.49999Z" fill="#127FE4"/>
<path fill-rule="evenodd" clip-rule="evenodd" d="M6.2998 10.8C6.2998 8.97746 7.77727 7.5 9.5998 7.5H20.3998C22.2224 7.5 23.6998 8.97746 23.6998 10.8V18C23.6998 19.8226 22.2224 21.3 20.3998 21.3H9.5998C7.77727 21.3 6.2998 19.8226 6.2998 18V10.8ZM9.5998 9.3C8.77137 9.3 8.0998 9.97157 8.0998 10.8V18C8.0998 18.8285 8.77137 19.5 9.5998 19.5H20.3998C21.2283 19.5 21.8998 18.8285 21.8998 18V10.8C21.8998 9.97157 21.2283 9.3 20.3998 9.3H9.5998Z" fill="#127FE4"/>
<path d="M12.2998 16.1806C12.2998 17.1133 13.3174 17.6894 14.1172 17.2096L17.0848 15.429C17.8617 14.9629 17.8617 13.8371 17.0848 13.371L14.1172 11.5904C13.3174 11.1105 12.2998 11.6867 12.2998 12.6194V16.1806Z" fill="#127FE4"/>
</svg>
